<?xml version="1.0" encoding="utf-8"?>
<!-- Generator: Adobe Illustrator 28.3.0, SVG Export Plug-In . SVG Version: 6.00 Build 0)  -->
<svg version="1.1" id="图层_1" xmlns="http://www.w3.org/2000/svg" xmlns:xlink="http://www.w3.org/1999/xlink" x="0px" y="0px"
	 viewBox="0 0 200 200" style="enable-background:new 0 0 200 200;" xml:space="preserve">
<style type="text/css">
	.st0{fill:#409EFF;}
	.st1{fill:#FFFFFF;}
</style>
<path class="st0" d="M100,0C44.8,0,0,44.8,0,100s44.8,100,100,100s100-44.8,100-100S155.2,0,100,0z"/>
<path class="st1" d="M75.4,40.8c0.8-1.7,3-2.5,5.8-2.5H120c2-0.2,3.9,0.8,5,2.5c0.9,2,0.7,4.4-0.4,6.3L115.4,60
	c-2.2,2.5-5.3,4-8.7,4.2H94.2c-3.4-0.2-6.5-1.7-8.8-4.2l-9.2-12.9C74.4,45.5,74,42.8,75.4,40.8z"/>
<path class="st1" d="M126.2,138.8l-21.3,20.4c-1.4,1.3-3.1,2-5,2.1c-1.9,0.2-3.8-0.6-5-2.1l-21.3-20.4c-2.1-2.4-2.9-5.7-2.1-8.8
	l16.7-53.8c1.4-3.4,4.6-5.7,8.3-5.8h7c3.7,0,7,2.3,8.3,5.8l16.8,53.8C129.3,133.1,128.4,136.4,126.2,138.8L126.2,138.8z"/>
</svg>
