<svg viewBox="0 0 1024 1024" version="1.1" xmlns="http://www.w3.org/2000/svg"
     width="200" height="200" fill="#409EFF">
    <path d="M108.16 773.376a102.4 102.4 0 0 1 91.712-56.576h624.32a102.4 102.4 0 0 1 91.584 56.576l58.88 117.76a68.224 68.224 0 0 1-61.12 98.752H110.464a68.288 68.288 0 0 1-61.056-98.816l58.88-117.696H108.16z"
          />
    <path d="M753.344 137.024c133.312 137.216 133.312 359.68 0 496.96l-193.088 198.784a66.88 66.88 0 0 1-96.512 0L270.72 633.984c-133.312-137.216-133.312-359.68 0-496.96a334.528 334.528 0 0 1 482.688 0z"
          fill="#1776FF" />
    <path d="M648.512 341.312a136.512 136.512 0 1 1-273.024 0 136.512 136.512 0 0 1 273.024 0z" fill="white"
          />
</svg>