<?xml version="1.0" encoding="utf-8"?>
<!-- Generator: Adobe Illustrator 28.3.0, SVG Export Plug-In . SVG Version: 6.00 Build 0)  -->
<svg version="1.1" id="图层_1" xmlns="http://www.w3.org/2000/svg" xmlns:xlink="http://www.w3.org/1999/xlink" x="0px" y="0px"
	 viewBox="0 0 200 200" style="enable-background:new 0 0 200 200;" xml:space="preserve">
<style type="text/css">
	.st0{fill:#FFDAB9;}
	.st1{fill:#FFFFFF;}
</style>
<path class="st0" d="M172.7,21.1c-2.6-1.1-5.3-1.6-8.1-1.6H35.4c-2.9,0-5.7,0.5-8.2,1.5c-8.8,3.5-15,11.7-15,21.6v115.2
	c0,9.9,6.2,18.1,15.2,21.4c2.6,0.9,5.3,1.5,8.2,1.5h129.1c12.8,0,23.3-10.4,23.3-23.3V42.5C187.9,32.6,181.7,24.4,172.7,21.1z"/>
<path class="st1" d="M82.4,71.3c0,9.5-7.9,17.2-17.6,17.2s-17.6-7.7-17.6-17.2S55.1,54,64.8,54S82.4,61.7,82.4,71.3z"/>
<path class="st1" d="M164.6,168.8H35.4c-5.5,0-10.3-3.8-11.4-9.2c-0.2-0.7-0.2-1.5-0.2-2.2v-8.8l34.6-29.3l12.5,11.9
	c6.4,6.2,16.7,6.6,23.6,0.9l58.4-48.3c11.2,12.1,18.9,20.1,23.6,24.4v49.1C176.2,163.7,171,168.8,164.6,168.8z"/>
</svg>
