<svg class="icon" viewBox="0 0 1024 1024" version="1.1" xmlns="http://www.w3.org/2000/svg"
      width="200" height="200" fill="currentColor">
    <path d="M905.3696 913.3056H218.624a98.7648 98.7648 0 0 1-98.6112-98.6624V146.5856a25.6 25.6 0 1 1 51.2 0v668.0576a47.4624 47.4624 0 0 0 47.4112 47.4624h686.7456a25.6 25.6 0 1 1 0 51.2z"
    />
    <path d="M264.0896 635.4432a25.6 25.6 0 0 1-17.7664-44.032l182.8864-176.3328a56.9856 56.9856 0 0 1 79.4112 0.768l94.9248 94.9248a5.4784 5.4784 0 0 0 7.68 0l200.192-195.7376a25.6 25.6 0 1 1 35.84 36.608l-200.192 195.7376a56.832 56.832 0 0 1-79.6672-0.4608L472.4224 452.0448a5.5296 5.5296 0 0 0-7.68 0l-182.8864 176.2304a25.6 25.6 0 0 1-17.7664 7.168z"
    />
</svg>