<svg  class="icon" viewBox="0 0 1024 1024" version="1.1" xmlns="http://www.w3.org/2000/svg"
      xmlns:xlink="http://www.w3.org/1999/xlink" width="200" height="200" fill="currentColor">
    <path d="M425.984 748.544a41.472 41.472 0 0 0-29.696 12.8 71.68 71.68 0 0 1-51.2 23.04 73.728 73.728 0 0 1-51.2-23.04L105.472 568.32a82.432 82.432 0 0 1 0-112.64l184.832-193.024a74.24 74.24 0 0 1 105.984 0l185.344 193.024a83.456 83.456 0 0 1 0 112.64 43.52 43.52 0 0 0 0 60.416 41.984 41.984 0 0 0 59.392 0 171.008 171.008 0 0 0 0-233.472L455.68 204.8a153.6 153.6 0 0 0-112.128-51.2 153.6 153.6 0 0 0-112.64 51.2L46.08 395.264a171.008 171.008 0 0 0 0 233.472l184.832 193.024a153.6 153.6 0 0 0 112.64 48.64 153.6 153.6 0 0 0 112.128-48.64 43.52 43.52 0 0 0 0-60.416 40.448 40.448 0 0 0-29.696-12.8z"
         />
    <path d="M977.92 395.264L793.088 204.8a153.6 153.6 0 0 0-225.28 0 44.032 44.032 0 0 0 0 60.416 41.984 41.984 0 0 0 59.392 0 74.752 74.752 0 0 1 106.496 0l184.832 190.464a82.432 82.432 0 0 1 0 112.64l-184.832 193.024a74.752 74.752 0 0 1-106.496 0L442.368 568.32a82.432 82.432 0 0 1 0-112.64 43.52 43.52 0 0 0 0-60.416 40.448 40.448 0 0 0-29.696-12.8 41.472 41.472 0 0 0-29.696 12.8 171.008 171.008 0 0 0 0 233.472l184.832 193.024a153.6 153.6 0 0 0 112.64 48.64 153.6 153.6 0 0 0 112.64-48.64l184.832-193.024a171.008 171.008 0 0 0 0-233.472z"
          />
</svg>