<?xml version="1.0" encoding="utf-8"?>
<!-- Generator: Adobe Illustrator 28.3.0, SVG Export Plug-In . SVG Version: 6.00 Build 0)  -->
<svg version="1.1" id="图层_1" xmlns="http://www.w3.org/2000/svg" xmlns:xlink="http://www.w3.org/1999/xlink" x="0px" y="0px"
	 viewBox="0 0 200 200" style="enable-background:new 0 0 200 200;" xml:space="preserve">
<style type="text/css">
	.st0{fill:#409EFF;}
</style>
<path class="st0" d="M100.6,2.8c9.2,0,16.6,7.7,16.6,17.2c0,0.1,0,0.2,0,0.3l23.5,9.6c5.5-7.6,15.8-9.2,23.2-3.5
	c7.3,5.7,8.9,16.4,3.4,24.1c-0.2,0.3-0.4,0.5-0.6,0.8L179.4,72c8.9-2.3,17.9,3.2,20.1,12.4c2.2,9.2-3.1,18.5-12,20.9
	c-8.1,2.1-16.4-2.3-19.4-10.3l-47.5,0.7c0,1.1-0.1,2.3-0.3,3.4l40.3,33.9c5.7-7.5,16.1-8.8,23.3-2.9s8.4,16.7,2.8,24.1
	c-5.6,7.4-15.9,8.7-23.1,3l-17.7,14.1c2.5,9.1-2.6,18.6-11.4,21.3c-8.1,2.4-16.6-1.8-19.8-9.9l-24.7,0.6
	c-2.8,9.1-12.1,14.1-20.8,11.2S55.5,182,58.3,173c0.2-0.8,0.5-1.5,0.9-2.3c3.2-7.1,10.6-11,18-9.6l13.3-47.9c-2-1.3-3.8-2.9-5.3-4.8
	L47.4,141c1.4,9.4-4.8,18.2-13.9,19.6s-17.5-5-18.9-14.4c-1.1-7.1,2.3-14.1,8.3-17.6l-5.5-22.8c-9.2-0.2-16.4-8-16.3-17.5
	s7.7-17,16.9-16.9c1.6,0,3.2,0.3,4.7,0.8l12.5-20.2c-6.1-7-5.6-17.9,1.2-24.3S53.8,22,59.9,29c4.3,4.9,5.5,12,3,18.1l31,29
	c1.3-0.5,2.6-0.8,4-1V36.9c-9-1.6-15.1-10.4-13.6-19.8C85.7,8.9,92.6,2.8,100.6,2.8L100.6,2.8z M104.5,115.8c-2,0.4-4,0.5-5.9,0.3
	L85,165c2.7,2.5,4.6,5.8,5.3,9.4l24-0.5c1.1-4.5,3.8-8.3,7.7-10.7L104.5,115.8L104.5,115.8z M116.7,107.7c-1.2,1.7-2.7,3.2-4.3,4.5
	l18,48.7h0.1c3.8,0,7.3,1.3,10.1,3.5l17.7-14.1c-1.1-2.7-1.5-5.7-1.1-8.6L116.7,107.7z M80.8,96.4l-48.5,0.8c-1.5,2.7-3.7,5-6.4,6.5
	l5.5,22.8c4.8,0.1,9.3,2.3,12.4,6.1l37.5-32.4C81,98.9,80.8,97.7,80.8,96.4L80.8,96.4z M57.7,54.2c-4.3,3.4-9.9,4.4-15.1,2.7
	L30.1,77.1c2.8,3.2,4.3,7.3,4.3,11.5l0-0.5l48-0.7c1-2.3,2.3-4.5,4.1-6.3L57.7,54.2L57.7,54.2z M146,55.8l-30.4,26.2
	c1.2,1.5,2.2,3,3,4.8l48.4-0.8c0.5-3.7,2.2-7.1,4.8-9.7l-12.2-19.8C155.3,58.4,150.3,58.1,146,55.8L146,55.8z M114.8,28.9
	c-1.9,3.2-4.8,5.7-8.2,7.1v39.9c0.7,0.2,1.3,0.5,1.9,0.7l31.1-26.9c-2.1-3.5-3-7.6-2.4-11.6L114.8,28.9L114.8,28.9z"/>
</svg>
