<?xml version="1.0" encoding="utf-8"?>
<!-- Generator: Adobe Illustrator 28.3.0, SVG Export Plug-In . SVG Version: 6.00 Build 0)  -->
<svg version="1.1" id="图层_1" xmlns="http://www.w3.org/2000/svg" xmlns:xlink="http://www.w3.org/1999/xlink" x="0px" y="0px"
	 viewBox="0 0 200 200" style="enable-background:new 0 0 200 200;" xml:space="preserve">
<path d="M161,14.2c-15.3-7.3-37-10.9-61-10.9S54.2,6.9,39,14.2c-17.4,8.5-26.1,18.1-26.1,29v112.4c0,10.9,8.7,21.8,26.1,29
	c15.3,8.5,37,12.1,61,12.1s45.8-3.6,61-10.9c16.3-7.3,26.1-18.1,26.1-29V43.2C187.2,32.3,178.4,22.6,161,14.2z M151.2,63.7
	c-14.2,6-33.8,8.5-51.2,8.5c-18.5,0-37-2.4-51.2-8.5c-16.3-4.8-24-12.1-24-20.5c0-7.3,8.7-14.5,24-20.6c14.2-4.8,32.7-7.3,51.2-7.3
	c17.4,0,37,3.6,51.2,8.5c15.3,6,24,13.3,24,20.6C175.2,51.6,167.6,58.9,151.2,63.7L151.2,63.7z M152.3,98.8
	c-14.2,4.8-33.8,8.5-52.3,8.5s-37-3.6-52.3-8.5c-15.3-6-24-13.3-24-20.5V64.9c10.9,4.8,18.5,10.9,30.5,13.3c14.2,3.6,29.4,6,45.8,6
	s31.6-2.4,45.8-6c12-2.4,19.6-8.5,30.5-13.3v14.5C176.3,85.5,167.6,92.7,152.3,98.8L152.3,98.8z M152.3,137.5
	c-14.2,4.8-33.8,8.5-52.3,8.5s-37-3.6-52.3-8.5s-24-12.1-24-20.5V98.8c10.9,6,18.5,10.9,30.5,14.5c14.2,3.6,29.4,6,45.8,6
	s31.6-2.4,45.8-6c12-3.6,19.6-8.5,30.5-14.5v18.1C176.3,125.4,167.6,132.6,152.3,137.5L152.3,137.5z M100,184.6
	c-18.5,0-37-3.6-52.3-8.5s-24-12.1-24-19.3v-18.1c10.9,6,18.5,10.9,30.5,14.5c13.1,3.6,29.4,6,44.7,6c16.3,0,31.6-2.4,45.8-6
	c13.1-3.6,20.7-8.5,31.6-14.5v18.1c0,7.3-8.7,14.5-24,20.6C138.1,182.2,117.4,184.6,100,184.6z"/>
</svg>
