<svg xmlns="http://www.w3.org/2000/svg" viewBox="0 0 1024 1024" width="200" height="200">
    <path d="M764.8 73.6H896l-224 224c-14.4 14.4-14.4 36.8 0 51.2s36.8 14.4 51.2 0l224-224V256c0 20.8 16 36.8 36.8 36.8 9.6 0 19.2-3.2 25.6-11.2 6.4-6.4 11.2-16 11.2-25.6V36.8c0-4.8-1.6-9.6-3.2-14.4 0-1.6-1.6-3.2-1.6-1.6-1.6-3.2-3.2-6.4-6.4-9.6s-6.4-4.8-8-6.4l-3.2-1.6c-3.2-1.6-8-3.2-12.8-3.2H764.8c-9.6 0-19.2 3.2-25.6 11.2-6.4 6.4-11.2 16-11.2 25.6 0 20.8 16 36.8 36.8 36.8zM352 297.6L128 73.6h131.2c20.8 0 36.8-16 36.8-36.8 0-19.2-17.6-36.8-36.8-36.8H38.4c-3.2 0-8 1.6-12.8 3.2h-1.6l-1.6 1.6C19.2 6.4 16 8 12.8 11.2s-4.8 6.4-6.4 8l-1.6 3.2c-1.6 4.8-3.2 9.6-3.2 14.4v220.8c0 9.6 3.2 19.2 11.2 25.6 6.4 6.4 16 11.2 25.6 11.2 20.8 0 36.8-16 36.8-36.8V126.4l224 224c14.4 14.4 36.8 14.4 51.2 0s16-38.4 1.6-52.8zM259.2 950.4H128l224-224c14.4-14.4 14.4-36.8 0-51.2s-36.8-14.4-51.2 0l-224 224V768c0-20.8-16-36.8-36.8-36.8-9.6 0-19.2 3.2-25.6 11.2-6.4 6.4-11.2 16-11.2 25.6v220.8c0 4.8 1.6 9.6 3.2 14.4 0 1.6 1.6 3.2 1.6 1.6 1.6 3.2 3.2 6.4 6.4 9.6 3.2 3.2 6.4 4.8 8 6.4l3.2 1.6c3.2 0 8 1.6 12.8 1.6h220.8c20.8 0 36.8-16 36.8-36.8s-16-36.8-36.8-36.8zM1011.2 1012.8c3.2-3.2 4.8-6.4 6.4-8l3.2-4.8c1.6-3.2 1.6-8 1.6-11.2V768c0-19.2-17.6-36.8-36.8-36.8-20.8 0-36.8 16-36.8 36.8v131.2l-224-224c-14.4-14.4-36.8-14.4-51.2 0s-14.4 36.8 0 51.2l224 224h-131.2c-20.8 0-36.8 16-36.8 36.8 0 9.6 4.8 19.2 11.2 25.6 6.4 6.4 16 11.2 25.6 11.2h220.8c4.8 0 8 0 12.8-1.6l1.6-1.6c1.6 0 3.2-1.6 1.6-1.6 1.6-1.6 4.8-3.2 8-6.4z"
          fill="currentColor"/>
</svg>
