<?xml version="1.0" encoding="utf-8"?>
<!-- Generator: Adobe Illustrator 28.3.0, SVG Export Plug-In . SVG Version: 6.00 Build 0)  -->
<svg version="1.1" id="图层_1" xmlns="http://www.w3.org/2000/svg" xmlns:xlink="http://www.w3.org/1999/xlink" x="0px" y="0px"
	 viewBox="0 0 128 128" style="enable-background:new 0 0 128 128;" xml:space="preserve">
<path d="M53.7,103.6H18.5V19.2h81.9v36.9c5.4,2.7,10,6.9,13.4,12V18.7c0-7.4-5.8-13.4-12.9-13.4H18c-7.1,0-12.9,6-12.9,13.4v85.3
	c0,7.4,5.8,13.4,12.9,13.4h46.6C60,113.9,56.2,109.1,53.7,103.6z"/>
<path d="M83,32h-47c-3.7,0-6.7,3.1-6.7,7s3,7,6.7,7h47c3.7,0,6.7-3.1,6.7-7S86.8,32,83,32z M68.6,56.9c-1.2-1.5-3.1-2.5-5.1-2.5
	H36.1c-3.7,0-6.7,3.1-6.7,7c0,3.8,3,7,6.7,7h20.4C59.6,63.6,63.7,59.7,68.6,56.9z M52.4,76.8H36.1c-3.7,0-6.7,3.1-6.7,7
	c0,3.8,3,7,6.7,7h14.5c0-0.7-0.1-1.5-0.1-2.2C50.5,84.4,51.2,80.5,52.4,76.8z M124.6,114.9l-11.4-11.8c2.1-4.3,3.3-9.2,3.3-14.4
	c0-17.7-13.9-32.2-31-32.2s-31,14.4-31,32.2s13.9,32.2,31,32.2c7.3,0,13.9-2.6,19.2-6.9l10.4,10.8c1.3,1.4,3,2,4.8,2s3.4-0.7,4.8-2
	C127.2,122,127.2,117.6,124.6,114.9z M85.5,107c-9.7,0-17.6-8.2-17.6-18.3s7.9-18.3,17.6-18.3s17.6,8.2,17.6,18.3S95.2,107,85.5,107
	z"/>
</svg>
