<svg  class="icon" viewBox="0 0 1152 1024" version="1.1" xmlns="http://www.w3.org/2000/svg"
     width="200" height="200" fill="currentColor">
    <path d="M1136.35926 392.6l-45.24-45.24c-9.066-9.066-21.12-14.058-33.94-14.058s-24.88 4.992-33.94 14.058l-11.308 11.312-40.24-40.24c9.192-46.92-5.304-95.8-38.94-129.46l-90.5-90.5C780.55926 34.94 694.35926 0 606.35926 0 516.55926 0 432.15926 34.94 368.75926 98.42l-15.6 15.68 192 96.1v27.62c0 37.9 15.376 75 42.18 101.82l98.32 98.28c26.88 26.9 62.78 41.72 101.08 41.72a146.4 146.4 0 0 0 28.36-2.774l40.24 40.24-11.308 11.308c-18.714 18.714-18.714 49.16-0.004 67.88l45.24 45.24c9.07 9.066 21.12 14.062 33.94 14.062s24.88-4.996 33.94-14.062l181.06-181C1156.75926 441.6 1156.75926 411.2 1136.35926 392.6z m-594.4-7.8c-7.692-7.692-14.394-16.226-20.74-24.98l-479 418.4c-56.24 56.24-56.32 147.44-0.074 203.6C70.39926 1010 107.27926 1024 142.35926 1024s73.68-14.062 101.82-42.18l418.2-478.8c-8.282-6.122-16.368-12.578-23.78-19.992L541.95926 384.8z"
         />
</svg>