<?xml version="1.0" encoding="utf-8"?>
<!-- Generator: Adobe Illustrator 28.3.0, SVG Export Plug-In . SVG Version: 6.00 Build 0)  -->
<svg version="1.1" id="图层_1" xmlns="http://www.w3.org/2000/svg" xmlns:xlink="http://www.w3.org/1999/xlink" x="0px" y="0px"
	 viewBox="0 0 205 200" style="enable-background:new 0 0 205 200;" xml:space="preserve">
<path d="M176.6,166.5c14,0.1,25.5-11.1,25.6-25.1c0.1-14-11.1-25.4-25.1-25.6c-4.6,0-9.2,1.2-13.2,3.5l-18-17.7
	c7.7-11.2,7.3-26.1-1-36.8l9.5-14.3c12.8,5.6,27.8-0.3,33.4-13.1s-0.3-27.7-13.1-33.3c-12.8-5.6-27.8,0.3-33.4,13.1
	c-3.7,8.4-2.5,18.2,3.1,25.5l-9.3,13.9c-11-6.6-24.9-5.7-35,2.3l-26.2-17c3.3-10.9,0.2-22.8-8-30.8C53.5-1.2,33.4-1.2,21.1,11.2
	S8.7,43.6,21.1,56c12.4,12.3,32.4,12.3,44.8,0c0.8-0.8,1.5-1.7,2.2-2.7l23.8,15.8c-4,7-5.1,15.4-2.8,23.2l-20.3,10.4
	C57.5,86.2,35,82,18.5,93.3s-20.7,33.8-9.4,50.2s33.8,20.6,50.3,9.3c12.5-8.6,18.4-24.1,14.5-38.8l20.2-10.4
	c4.3,5.5,10.3,9.4,17,11.1l-7.7,32.7h-2.9c-14,0-25.4,11.3-25.4,25.3c0,14,11.3,25.3,25.3,25.4c14,0,25.4-11.3,25.4-25.3
	c0-8.1-3.9-15.8-10.5-20.5l9.3-37c4.5-0.7,8.9-2.3,12.7-4.8l17.9,17.9c-7.1,12-3.2,27.4,8.8,34.6
	C167.8,165.2,172.1,166.4,176.6,166.5L176.6,166.5z M56.9,47c-7.4,7.4-19.5,7.4-26.9,0s-7.4-19.4,0-26.9s19.5-7.4,26.9,0
	c3.6,3.6,5.6,8.4,5.6,13.4C62.5,38.6,60.5,43.4,56.9,47z M43.5,141.2c-10.5,0-19-8.5-19-19s8.5-19,19-19c10.5,0,19,8.5,19,19
	S54,141.2,43.5,141.2L43.5,141.2z M100.5,185.5c-7,0-12.7-5.7-12.7-12.7s5.7-12.7,12.7-12.7c7,0,12.7,5.7,12.7,12.7
	C113.2,179.8,107.5,185.5,100.5,185.5L100.5,185.5z M189.3,141.2c0,7-5.7,12.7-12.7,12.7c-7,0-12.7-5.7-12.7-12.7
	s5.7-12.7,12.7-12.7l0,0C183.6,128.5,189.3,134.2,189.3,141.2z M163.9,14.6c7,0,12.7,5.7,12.7,12.7s-5.7,12.7-12.7,12.7
	s-12.7-5.7-12.7-12.7c0,0,0,0,0,0C151.2,20.2,156.9,14.6,163.9,14.6z M100.5,84.2c0-10.5,8.5-19,19-19c10.5,0,19,8.5,19,19
	s-8.5,19-19,19S100.5,94.7,100.5,84.2z"/>
</svg>
