<?xml version="1.0" encoding="utf-8"?>
<!-- Generator: Adobe Illustrator 28.3.0, SVG Export Plug-In . SVG Version: 6.00 Build 0)  -->
<svg version="1.1" id="图层_1" xmlns="http://www.w3.org/2000/svg" xmlns:xlink="http://www.w3.org/1999/xlink" x="0px" y="0px"
	 viewBox="0 0 1024 1024" style="enable-background:new 0 0 1024 1024;" xml:space="preserve">
<path d="M827.1,409.6c0-172.9-140.2-313.1-313.1-313.1S200.9,236.7,200.9,409.6c0,128.4,102.8,295.8,313.1,496.3
	C724.3,705.5,827.1,538.1,827.1,409.6 M514,1001C258.9,769.1,131.4,572,131.4,409.6C131.4,198.3,302.7,27,514,27
	s382.6,171.3,382.6,382.6C896.6,572,769.1,769.1,514,1001"/>
<path d="M514,444.4c38.4,0,69.6-31.1,69.6-69.6s-31.1-69.6-69.6-69.6s-69.6,31.1-69.6,69.6S475.6,444.4,514,444.4 M514,514
	c-76.8,0-139.1-62.3-139.1-139.1S437.2,235.7,514,235.7S653.1,298,653.1,374.9S590.8,514,514,514 M889.7,722.7L1001,1001H687.9
	v-69.6H340.1v69.6H27l111.3-278.3H889.7z M814.8,722.7H213.2l-83.5,208.7h768.5L814.8,722.7z"/>
</svg>
