<?xml version="1.0" encoding="utf-8"?>
<!-- Generator: Adobe Illustrator 28.3.0, SVG Export Plug-In . SVG Version: 6.00 Build 0)  -->
<svg version="1.1" id="图层_1" xmlns="http://www.w3.org/2000/svg" xmlns:xlink="http://www.w3.org/1999/xlink" x="0px" y="0px"
	 viewBox="0 0 200 200" style="enable-background:new 0 0 200 200;" xml:space="preserve">
<style type="text/css">
	.st0{fill:#409EFF;}
</style>
<path class="st0" d="M183.5,0c7.7,0,13.9,6,13.9,13.3v0v173.3c0,7.4-6.2,13.3-13.9,13.3H16.5c-7.7,0-13.9-6-13.9-13.3V13.3
	C2.6,6,8.8,0,16.5,0H183.5L183.5,0z M51.3,80c-7.7,0-13.9-5.9-13.9-13.3c0,0,0,0,0,0V13.3H16.5v173.3h167V13.3h-20.9v53.3
	c0,7.4-6.2,13.3-13.9,13.3H51.3z M51.3,66.7h97.4V13.3H51.3V66.7z M148.7,120c3.8-0.2,7.1,2.7,7.2,6.4c0.2,3.7-2.8,6.8-6.7,6.9
	c-0.2,0-0.4,0-0.6,0H51.3c-3.8,0-6.9-3-6.9-6.7c0-3.7,3.1-6.7,6.9-6.7H148.7z"/>
</svg>
