<?xml version="1.0" encoding="utf-8"?>
<!-- Generator: Adobe Illustrator 28.3.0, SVG Export Plug-In . SVG Version: 6.00 Build 0)  -->
<svg version="1.1" id="图层_1" xmlns="http://www.w3.org/2000/svg" xmlns:xlink="http://www.w3.org/1999/xlink" x="0px" y="0px"
	 viewBox="0 0 200 200" style="enable-background:new 0 0 200 200;" xml:space="preserve">
<path d="M73.7,57.6c8.9,0,16,7.2,16,16s-7.2,16-16,16s-16-7.2-16-16S64.8,57.6,73.7,57.6 M73.7,46.9c-14.8,0-26.7,12-26.7,26.7
	s12,26.7,26.7,26.7s26.7-12,26.7-26.7l0,0C100.4,58.9,88.4,46.9,73.7,46.9z M127.2,111.1c8.9,0,16,7.2,16,16s-7.2,16-16,16
	s-16-7.2-16-16S118.3,111.1,127.2,111.1 M127.2,100.4c-14.8,0-26.7,12-26.7,26.7c0,14.8,12,26.7,26.7,26.7s26.7-12,26.7-26.7
	C153.9,112.4,141.9,100.4,127.2,100.4C127.2,100.4,127.2,100.4,127.2,100.4z"/>
<path d="M99.9,68.3c0.7,3.5,0.7,7.2,0,10.7H186V186H79V99.9c-3.5,0.7-7.2,0.7-10.7,0v96.8h128.3V68.3H99.9z"/>
<path d="M100.4,127.2c0-1.8,0.2-3.6,0.5-5.3H14.9V14.9h106.9V101c3.5-0.7,7.2-0.7,10.7,0V4.2H4.2v128.3H101
	C100.6,130.7,100.4,128.9,100.4,127.2z"/>
</svg>
