<svg  viewBox="0 0 1024 1024" version="1.1" xmlns="http://www.w3.org/2000/svg"
      width="200" height="200" fill="#BA55D3" >
    <rect width="1024" height="1024" fill="white" rx="200" ry="200" />
    <path d="m203.99999,2l615,0c113.18851,0 205,91.45321 205,204.20001l0,612.60002c0,112.7468 -91.81149,204.20001 -205,204.20001l-615,0c-113.18851,0 -205,-91.45321 -205,-204.20001l0,-612.60002c0,-112.7468 91.81149,-204.20001 205,-204.20001zm51.25,204.20001c-28.36564,0 -51.25,22.79505 -51.25,51.05s22.88436,51.05 51.25,51.05l512.5,0c28.36564,0 51.25,-22.79505 51.25,-51.05s-22.88436,-51.05 -51.25,-51.05l-512.5,0zm410,306.30001c-28.36564,0 -51.25,22.79505 -51.25,51.05s22.88436,51.05 51.25,51.05l102.5,0c28.36564,0 51.25,-22.79505 51.25,-51.05s-22.88436,-51.05 -51.25,-51.05l-102.5,0zm0,204.20001c-28.36564,0 -51.25,22.79505 -51.25,51.05s22.88436,51.05 51.25,51.05l102.5,0c28.36564,0 51.25,-22.79505 51.25,-51.05s-22.88436,-51.05 -51.25,-51.05l-102.5,0zm-358.75,-204.20001c-56.59425,0 -102.5,45.72661 -102.5,102.1l0,102.1c0,56.3734 45.90575,102.1 102.5,102.1l102.5,0c56.59425,0 102.5,-45.72661 102.5,-102.1l0,-102.1c0,-56.3734 -45.90575,-102.1 -102.5,-102.1l-102.5,0z" />
</svg>